<?xml version="1.0" encoding="UTF-8" standalone="no"?>
<!-- Created with Inkscape (http://www.inkscape.org/) -->

<!-- Steps to recreate: 1. render 'printi' with Chrome Canary (August 2018), without subpixel AA at maximum zoom. 2. Take screenshot, BW and increase contrast until background is white. 3. Import in Inkscape (October 2018) and trace BW, threshold 0.800, default settings. -->

<svg
   xmlns:dc="http://purl.org/dc/elements/1.1/"
   xmlns:cc="http://creativecommons.org/ns#"
   xmlns:rdf="http://www.w3.org/1999/02/22-rdf-syntax-ns#"
   xmlns:svg="http://www.w3.org/2000/svg"
   xmlns="http://www.w3.org/2000/svg"
   xmlns:sodipodi="http://sodipodi.sourceforge.net/DTD/sodipodi-0.dtd"
   xmlns:inkscape="http://www.inkscape.org/namespaces/inkscape"
   width="150.34013mm"
   height="51.155609mm"
   viewBox="0 0 150.34013 51.155609"
   version="1.1"
   id="svg8"
   sodipodi:docname="printi_logo_transparent.svg"
   inkscape:version="0.92.3 (2405546, 2018-03-11)">
  <defs
     id="defs2" />
  <sodipodi:namedview
     id="base"
     pagecolor="#ffffff"
     bordercolor="#666666"
     borderopacity="1.0"
     inkscape:pageopacity="0.0"
     inkscape:pageshadow="2"
     inkscape:zoom="2.8"
     inkscape:cx="238.90964"
     inkscape:cy="89.01799"
     inkscape:document-units="mm"
     inkscape:current-layer="layer1"
     showgrid="false"
     inkscape:window-width="1920"
     inkscape:window-height="1013"
     inkscape:window-x="-9"
     inkscape:window-y="-9"
     inkscape:window-maximized="1" />
  <metadata
     id="metadata5">
    <rdf:RDF>
      <cc:Work
         rdf:about="">
        <dc:format>image/svg+xml</dc:format>
        <dc:type
           rdf:resource="http://purl.org/dc/dcmitype/StillImage" />
      </cc:Work>
    </rdf:RDF>
  </metadata>
  <g
     inkscape:label="Layer 1"
     inkscape:groupmode="layer"
     id="layer1"
     transform="translate(-28.894517,-76.681703)">
    <path
       style="fill:#000000;stroke-width:0.26458335"
       d="m 30.412643,127.44792 c -0.371747,-0.2022 -0.903181,-0.78967 -1.180965,-1.30548 -0.592278,-1.0998 -0.513953,-1.47721 1.130951,-5.44944 1.666942,-4.02545 6.333627,-20.26977 7.484745,-26.053744 l 0.314408,-1.579788 -0.82464,-0.688439 c -2.064033,-1.723131 -0.04386,-4.221777 3.413336,-4.221777 0.739505,0 1.681647,0.174317 2.093649,0.387372 0.977881,0.505682 2.135043,1.893738 2.135043,2.561059 0,0.462008 0.140915,0.411111 1.149152,-0.415063 2.089573,-1.712248 4.04223,-2.52623 6.069243,-2.530017 2.015908,-0.0038 3.384748,0.460807 4.51409,1.532039 1.874023,1.777599 2.802549,5.354056 2.309797,8.8968 -0.839015,6.032308 -5.164495,12.104478 -10.509089,14.752838 -1.941367,0.96198 -2.587162,1.14976 -4.241382,1.2333 -1.973686,0.0997 -3.204634,-0.19062 -4.122079,-0.97209 -0.255554,-0.21767 -0.508565,-0.34689 -0.562247,-0.28715 -0.05368,0.0597 -0.42636,1.23971 -0.828172,2.62216 -1.197282,4.11929 -2.768883,8.52222 -3.476643,9.74002 -1.131166,1.94633 -3.18219,2.69502 -4.869197,1.7774 z m 14.75895,-18.04598 c 2.415398,-1.14618 5.577589,-5.84122 6.555183,-9.732756 0.456226,-1.816105 0.523599,-4.966568 0.122253,-5.716492 -0.721977,-1.349025 -3.002608,0.119988 -5.670053,3.652226 -5.303777,7.023272 -5.910087,14.123512 -1.007383,11.797022 z m 21.477008,4.64111 c -1.096888,-0.63615 -1.82568,-1.72424 -1.82568,-2.72575 0,-0.3823 0.608816,-2.26893 1.352928,-4.19251 2.142019,-5.53726 3.400869,-9.518909 3.735575,-11.815326 l 0.309753,-2.12521 -0.714753,-0.746041 c -0.751493,-0.78439 -0.920173,-1.82325 -0.441322,-2.717991 0.788487,-1.473304 4.547465,-2.098001 6.277425,-1.043233 1.197797,0.730306 1.911924,2.00803 1.923203,3.441013 l 0.0094,1.190625 0.586552,-0.79375 c 2.804787,-3.795565 5.972551,-5.27464 8.281403,-3.866706 2.217071,1.351967 2.220598,5.385478 0.0065,7.425352 -0.910336,0.8387 -2.293054,0.867767 -3.146344,0.06615 -0.902409,-0.847768 -1.504563,-0.72439 -2.875356,0.589145 -2.526438,2.420908 -5.646494,7.765612 -8.181055,14.014272 -0.714563,1.76167 -1.50142,3.35187 -1.748567,3.53377 -0.68484,0.50404 -2.481438,0.3857 -3.549627,-0.23381 z m 26.074744,0.19237 c -1.023149,-0.44565 -2.097903,-1.71548 -2.510772,-2.96648 -0.628883,-1.90553 0.16872,-5.08355 2.76905,-11.03317 2.453778,-5.614307 2.687069,-6.785837 1.606923,-8.069516 -0.86188,-1.024285 -0.84056,-1.903198 0.06615,-2.726962 1.081371,-0.982452 2.016876,-1.29004 3.923551,-1.29004 5.368143,0 5.442533,2.39374 0.431716,13.890628 -1.014783,2.32833 -1.965553,4.80699 -2.112823,5.50814 l -0.267758,1.27481 1.666991,-0.17852 c 1.583847,-0.16962 1.688899,-0.14509 2.106207,0.49181 0.87053,1.32859 -0.479064,3.89668 -2.583081,4.91521 -1.335995,0.64675 -3.827357,0.73675 -5.09615,0.18409 z m 16.341265,-0.19369 c -0.93616,-0.59946 -1.64377,-1.71931 -1.64377,-2.60142 0,-0.30125 0.76728,-2.24192 1.70507,-4.31262 1.9703,-4.35052 4.17175,-10.226328 4.65942,-12.436261 0.32789,-1.48586 0.31889,-1.547329 -0.32908,-2.248958 -0.93067,-1.00774 -1.06673,-1.560728 -0.60413,-2.4553 0.88854,-1.718247 4.52359,-2.461095 6.41124,-1.310182 1.44955,0.883801 1.97161,1.992492 1.78305,3.786592 l -0.16146,1.536204 1.66846,-1.901689 c 1.01222,-1.153708 2.33775,-2.304289 3.37008,-2.925267 1.46005,-0.878272 1.92165,-1.023577 3.25168,-1.023577 2.4262,0 4.21013,1.134626 5.08825,3.236259 0.22522,0.539043 0.4095,1.318666 0.4095,1.732495 0,1.472982 -1.05854,4.756202 -2.49979,7.753464 -1.49168,3.10213 -2.79187,6.56348 -2.79187,7.43246 0,0.6123 0.88843,0.63736 2.2612,0.0638 1.41046,-0.58933 2.23671,-0.19865 2.23671,1.0576 0,1.2457 -0.33594,2.03337 -1.36907,3.21004 -1.16031,1.32153 -2.62817,1.95922 -4.52641,1.96643 -1.90383,0.007 -3.0042,-0.43953 -4.06866,-1.65188 -2.24605,-2.5581 -1.8178,-5.99161 1.69026,-13.55198 1.85508,-3.997963 2.21955,-5.163251 1.6149,-5.163251 -0.40053,0 -2.50903,2.10508 -4.63773,4.630208 -4.0558,4.811113 -5.14801,6.415633 -7.11411,10.451043 -1.09893,2.25557 -2.24885,4.36893 -2.55537,4.69635 -0.7459,0.79678 -2.62757,0.81118 -3.84837,0.0295 z m 37.38227,0.0794 c -3.89165,-1.84622 -4.11695,-6.53308 -0.80082,-16.659039 l 1.1534,-3.521956 -0.65654,-0.249613 c -0.36109,-0.137287 -0.74939,-0.249613 -0.86288,-0.249613 -0.45536,0 -1.08177,-1.013116 -1.07623,-1.740626 0.0108,-1.422087 1.23971,-2.411727 3.37469,-2.717684 l 1.19951,-0.171899 1.39787,-2.778125 c 1.65958,-3.298272 2.56376,-4.233333 4.09352,-4.233333 1.37057,0 2.51331,0.59724 3.02092,1.578839 0.57479,1.111522 0.50374,1.775717 -0.39261,3.670438 -0.43645,0.922572 -0.79354,1.728809 -0.79354,1.791639 0,0.06283 1.05415,0.08264 2.34255,0.04402 2.69081,-0.08066 3.2137,0.167656 3.2137,1.52612 0,1.937761 -2.10528,3.24617 -5.67469,3.526766 l -2.10281,0.165304 -1.16175,2.903236 c -1.50523,3.761636 -3.00668,9.226236 -2.90983,10.590516 0.0732,1.03095 0.1025,1.06033 1.13346,1.13565 0.85098,0.0622 1.41071,-0.13542 2.85689,-1.00854 2.06162,-1.24468 3.0372,-1.31386 3.5439,-0.25133 0.83933,1.76004 -1.09407,4.65682 -4.09387,6.13376 -2.24493,1.10529 -5.10488,1.32193 -6.80484,0.51547 z m 19.2826,0.10635 c -2.40939,-1.04863 -3.10746,-4.16245 -1.84261,-8.21925 0.38448,-1.23319 1.33335,-3.70212 2.10859,-5.48651 2.56291,-5.899119 2.78891,-7.060542 1.63964,-8.426371 -1.66633,-1.980314 0.41761,-3.929429 4.21178,-3.939307 2.12886,-0.0055 3.40627,0.581511 3.85955,1.773717 0.5102,1.341946 -0.21762,4.473109 -1.89864,8.168147 -1.8465,4.058754 -3.69735,8.715384 -3.85437,9.697344 l -0.16658,1.04171 1.74964,-0.18737 c 1.69658,-0.18168 1.75892,-0.16701 2.05546,0.48381 0.69588,1.5273 -0.70467,4.02865 -2.78468,4.97337 -1.2839,0.58313 -3.87383,0.6447 -5.07778,0.12071 z M 99.880213,85.129921 c -2.459757,-1.093247 -3.494125,-4.658532 -1.928858,-6.648445 1.879897,-2.389902 6.487665,-2.297712 7.756105,0.15518 1.20628,2.332682 -0.52207,5.831313 -3.25577,6.590536 -1.25389,0.348238 -1.59843,0.335205 -2.571477,-0.09727 z m 72.882627,-0.221815 c -0.93639,-0.472195 -1.33337,-0.900726 -1.9195,-2.072086 -0.64752,-1.294053 -0.70814,-1.6139 -0.48994,-2.585042 0.34531,-1.536863 0.92354,-2.321429 2.18531,-2.965138 3.10978,-1.586488 6.74698,0.121591 6.6954,3.144243 -0.035,2.050447 -1.12294,3.626938 -3.1539,4.570187 -1.37894,0.640429 -1.89291,0.62615 -3.31737,-0.09216 z"
       id="path3728"
       inkscape:connector-curvature="0" />
  </g>
</svg>
